<?xml version="1.0" encoding="UTF-8"?>
<!DOCTYPE svg PUBLIC "-//W3C//DTD SVG 1.1//EN" "http://www.w3.org/Graphics/SVG/1.1/DTD/svg11.dtd">
<!-- Creator: CorelDRAW 2017 -->
<svg xmlns="http://www.w3.org/2000/svg" xml:space="preserve" width="34.9477mm" height="22.8168mm" version="1.1" style="shape-rendering:geometricPrecision; text-rendering:geometricPrecision; image-rendering:optimizeQuality; fill-rule:evenodd; clip-rule:evenodd"
viewBox="0 0 783.92 511.81"
 xmlns:xlink="http://www.w3.org/1999/xlink">
 <defs>
  <style type="text/css">
   <![CDATA[
    .fil0 {fill:#373435;fill-rule:nonzero}
   ]]>
  </style>
 </defs>
 <g id="Capa_x0020_1">
  <metadata id="CorelCorpID_0Corel-Layer"/>
  <g id="_2442510462944">
   <path class="fil0" d="M44.77 314.15c21.68,13.29 40.11,22.5 55.3,27.9 15.11,5.31 29.89,7.97 44.34,7.97 14.53,0 26.24,-3.24 35.13,-9.63 8.8,-6.4 13.2,-14.62 13.2,-24.66 0,-14.37 -15.69,-30.64 -47.16,-48.58 -5.07,-2.9 -8.97,-5.23 -11.71,-6.81l-23.83 -13.45c-330.83,-102.46 172.93,-437.94 351.15,-98.85l142.28 270.7 -88.1 0 -22.33 -51.32 -143.16 0 -22.84 51.32 -84.78 0 141.45 -285.9c-99.79,-101.16 -327.47,-56.64 -295.88,15.48 8.75,20 79.29,40.52 98.36,51.06 34.64,19.17 57.88,36.87 69.84,53.06 11.95,16.27 17.93,35.46 17.93,57.71 0,34.38 -11.71,62.19 -35.12,83.37 -23.5,21.18 -54.55,31.72 -93.33,31.72 -13.12,0 -27.4,-1.41 -42.85,-4.15 -15.36,-2.74 -32.38,-7.06 -50.82,-12.87l-7.06 -94.08zm329.51 -7.51l92.67 0 -45.76 -110.44 -46.92 110.44z"/>
   <path class="fil0" d="M772.96 259.21c-15.28,-15.7 -30.72,-27.32 -46.33,-34.96 -15.7,-7.56 -32.14,-11.38 -49.33,-11.38 -29.81,0 -54.22,10.3 -73.16,30.89 -19.02,20.59 -28.48,47.08 -28.48,79.3 0,32.3 9.38,58.46 28.23,78.47 18.77,20.01 43.26,30.06 73.49,30.06 17.85,0 35.62,-3.74 53.39,-11.21 17.77,-7.47 35.46,-18.68 53.14,-33.63l-5.39 93.66c-15.11,10.21 -31.56,18.02 -49.49,23.33 -17.93,5.4 -36.53,8.06 -55.88,8.06 -20.76,0 -40.6,-3.24 -59.7,-9.72 -19.02,-6.48 -36.62,-16.11 -52.65,-28.73 -22.75,-17.85 -40.11,-39.61 -52.23,-65.35 -12.04,-25.66 -18.1,-53.73 -18.1,-84.03 0,-26.16 4.48,-50.65 13.37,-73.49 8.97,-22.84 21.92,-43.1 38.95,-60.62 17.19,-17.52 37.03,-30.89 59.62,-40.27 22.5,-9.3 46.25,-13.95 71.24,-13.95 19.85,0 38.69,2.74 56.72,8.3 18.02,5.48 35.21,13.87 51.57,25.08l-8.97 90.18z"/>
  </g>
 </g>
</svg>
