<?xml version="1.0" encoding="UTF-8"?>
<!DOCTYPE svg PUBLIC "-//W3C//DTD SVG 1.1//EN" "http://www.w3.org/Graphics/SVG/1.1/DTD/svg11.dtd">
<!-- Creator: CorelDRAW 2017 -->
<svg xmlns="http://www.w3.org/2000/svg" xml:space="preserve" width="23.9722mm" height="23.9723mm" version="1.1" style="shape-rendering:geometricPrecision; text-rendering:geometricPrecision; image-rendering:optimizeQuality; fill-rule:evenodd; clip-rule:evenodd"
viewBox="0 0 306.85 306.85"
 xmlns:xlink="http://www.w3.org/1999/xlink">
 <defs>
  <style type="text/css">
   <![CDATA[
    .fil0 {fill:black}
   ]]>
  </style>
 </defs>
 <g id="Capa_x0020_1">
  <metadata id="CorelCorpID_0Corel-Layer"/>
  <path class="fil0" d="M153.42 0c84.73,0 153.42,68.69 153.42,153.42 0,84.73 -68.69,153.43 -153.42,153.43 -84.73,0 -153.42,-68.69 -153.42,-153.43 0,-84.73 68.69,-153.42 153.42,-153.42zm-10.22 166.17l32.37 0 -15.98 -38.58 -16.39 38.58zm139.28 -16.57c-5.34,-5.48 -10.73,-9.54 -16.19,-12.21 -5.48,-2.64 -11.23,-3.97 -17.23,-3.97 -10.41,0 -18.94,3.6 -25.56,10.79 -6.64,7.19 -9.95,16.45 -9.95,27.7 0,11.28 3.28,20.42 9.86,27.41 6.55,6.99 15.11,10.5 25.67,10.5 6.24,0 12.44,-1.31 18.65,-3.92 6.21,-2.61 12.39,-6.53 18.56,-11.75l-1.88 32.72c-5.28,3.57 -11.02,6.29 -17.29,8.15 -6.26,1.89 -12.76,2.81 -19.52,2.81 -7.25,0 -14.18,-1.13 -20.86,-3.39 -6.64,-2.26 -12.79,-5.63 -18.39,-10.04 -7.95,-6.24 -14.01,-13.84 -18.25,-22.83 -1.62,-3.45 -2.93,-7.02 -3.92,-10.71l-1.51 -3.47 -50.01 0 -7.98 17.93 -29.62 0 49.41 -99.87c-34.86,-35.34 -114.4,-19.79 -103.36,5.41 3.06,6.99 27.7,14.15 34.36,17.84 12.1,6.7 20.22,12.88 24.4,18.54 4.18,5.69 6.26,12.39 6.26,20.16 0,12.01 -4.09,21.73 -12.27,29.12 -8.21,7.4 -19.06,11.08 -32.6,11.08 -4.58,0 -9.57,-0.49 -14.97,-1.45 -5.37,-0.96 -11.31,-2.47 -17.75,-4.5l-2.47 -32.86c7.57,4.64 14.01,7.86 19.32,9.75 5.28,1.86 10.44,2.79 15.49,2.79 5.08,0 9.17,-1.13 12.27,-3.37 3.08,-2.23 4.61,-5.11 4.61,-8.62 0,-5.02 -5.48,-10.7 -16.48,-16.97 -1.77,-1.02 -3.13,-1.83 -4.09,-2.38l-8.33 -4.7c-115.57,-35.79 60.41,-152.99 122.67,-34.53l16.66 31.71c2.99,-6.33 6.93,-12.04 11.84,-17.09 6,-6.12 12.94,-10.79 20.83,-14.07 7.86,-3.25 16.16,-4.87 24.89,-4.87 6.94,0 13.52,0.96 19.81,2.9 6.3,1.92 12.3,4.84 18.01,8.76l-3.13 31.5z"/>
 </g>
</svg>
